0
SECTION
2
HEADER
0
ENDSEC
0
SECTION
2
ENTITIES
0
LINE
8
WALLS
10
0
20
0
30
0
11
18.9609
21
0
31
0
0
LINE
8
WALLS
10
18.9609
20
0
30
0
11
18.9609
21
6.9819
31
0
0
LINE
8
WALLS
10
18.9609
20
6.9819
30
0
11
10.557
21
6.9819
31
0
0
LINE
8
WALLS
10
10.557
20
6.9819
30
0
11
10.557
21
10.1179
31
0
0
LINE
8
WALLS
10
10.557
20
10.1179
30
0
11
9.7594
21
10.4019
31
0
0
LINE
8
WALLS
10
9.7594
20
10.4019
30
0
11
8.9736
21
11.2538
31
0
0
LINE
8
WALLS
10
8.9736
20
11.2538
30
0
11
7.7439
21
11.6676
31
0
0
LINE
8
WALLS
10
7.7439
20
11.6676
30
0
11
5.689
21
11.6676
31
0
0
LINE
8
WALLS
10
5.689
20
11.6676
30
0
11
5.689
21
13.0024
31
0
0
LINE
8
WALLS
10
5.689
20
13.0024
30
0
11
3.3199
21
13.0024
31
0
0
LINE
8
WALLS
10
3.3199
20
13.0024
30
0
11
3.3199
21
11.6676
31
0
0
LINE
8
WALLS
10
3.3199
20
11.6676
30
0
11
2.1334
21
11.6676
31
0
0
LINE
8
WALLS
10
2.1334
20
11.6676
30
0
11
2.1334
21
13.0024
31
0
0
LINE
8
WALLS
10
2.1334
20
13.0024
30
0
11
0
21
13.0024
31
0
0
LINE
8
WALLS
10
0
20
13.0024
30
0
11
0
21
0
31
0
0
LINE
8
WALLS
10
5.689
20
11.6676
30
0
11
5.689
21
9.5499
31
0
0
LINE
8
WALLS
10
5.689
20
8.7791
30
0
11
5.689
21
6.9819
31
0
0
LINE
8
WALLS
10
0
20
6.9819
30
0
11
4.7304
21
6.9819
31
0
0
LINE
8
WALLS
10
5.5162
20
6.9819
30
0
11
7.127
21
6.9819
31
0
0
LINE
8
WALLS
10
7.9914
20
6.9819
30
0
11
11.3309
21
6.9819
31
0
0
LINE
8
WALLS
10
12.2739
20
6.9819
30
0
11
18.9609
21
6.9819
31
0
0
LINE
8
WALLS
10
5.689
20
5.2902
30
0
11
5.689
21
3.5052
31
0
0
LINE
8
WALLS
10
5.689
20
2.7344
30
0
11
5.689
21
0
31
0
0
LINE
8
WALLS
10
8.3843
20
6.9819
30
0
11
8.3843
21
4.4382
31
0
0
LINE
8
WALLS
10
8.3843
20
3.6674
30
0
11
8.3843
21
0
31
0
0
LINE
8
WALLS
10
0
20
4.8642
30
0
11
4.7304
21
4.8642
31
0
0
LINE
8
WALLS
10
5.5162
20
4.8642
30
0
11
5.689
21
4.8642
31
0
0
LINE
8
WALLS
10
11.3309
20
6.9819
30
0
11
11.3309
21
5.0874
31
0
0
LINE
8
WALLS
10
11.3309
20
4.2354
30
0
11
11.3309
21
2.6532
31
0
0
LINE
8
WALLS
10
11.3309
20
1.8824
30
0
11
11.3309
21
0
31
0
0
LINE
8
WALLS
10
14.199
20
6.9819
30
0
11
14.199
21
4.8845
31
0
0
LINE
8
WALLS
10
14.199
20
4.0731
30
0
11
14.199
21
2.6532
31
0
0
LINE
8
WALLS
10
14.199
20
1.8418
30
0
11
14.199
21
0
31
0
0
LINE
8
WALLS
10
11.3309
20
4.0731
30
0
11
13.374
21
4.0731
31
0
0
LINE
8
WALLS
10
14.199
20
4.0731
30
0
11
18.9609
21
4.0731
31
0
0
ENDSEC
0
EOF
